# xmcd
#
# Track frame offsets:
#	150
#	16020
#	39118
#	55900
#	74176
#	88924
#	105689
#	123398
#	144021
#	162821
#	176360
#	198920
#	220104
#	236977
#	256733
#	281623
#	301734
#	322836
#
# Disc length: 4557 seconds
#
# Revision: 1
# Processed by: cddbd v1.5.2PL0 Copyright (c) Steve Scherf et al.
# Submitted via: audiograbber 1.83.01
#
DISCID=ee11cb12
DTITLE=Dionne Warwick - Night and Day CD2
DYEAR=1900
DGENRE=Soul
TTITLE0=I´ll never love this way again
TTITLE1=Yours
TTITLE2=So amazing
TTITLE3=Friends in love (with Johnny Mathis)
TTITLE4=Who, What, When, Where, Why
TTITLE5=We never said goodbye
TTITLE6=I got a kick out of you
TTITLE7=Whisper in the dark
TTITLE8=Sunny wheather lover
TTITLE9=You´de be so nice to come home to
TTITLE10=For you
TTITLE11=What can a miracle do
TTITLE12=In your eyes
TTITLE13=Reservations for two
TTITLE14=Will you still love me tomorrow
TTITLE15=It makes no difference
TTITLE16=Finder of lost lovers (with Glenn Jones)
TTITLE17=Fragile
EXTD=
EXTT0=
EXTT1=
EXTT2=
EXTT3=
EXTT4=
EXTT5=
EXTT6=
EXTT7=
EXTT8=
EXTT9=
EXTT10=
EXTT11=
EXTT12=
EXTT13=
EXTT14=
EXTT15=
EXTT16=
EXTT17=
PLAYORDER=
